<svg width="119" height="54" viewBox="0 0 119 54" fill="none" xmlns="http://www.w3.org/2000/svg">
<g filter="url(#filter0_d_116_8062)">
<rect x="7" width="105" height="41" rx="8.07692" fill="#048741"/>
<path d="M40.1747 25V15.907H36.6537V14.92H44.7247V15.907H41.2037V25H40.1747ZM48.6251 25.21C47.8878 25.21 47.2484 25.0467 46.7071 24.72C46.1704 24.3933 45.7528 23.9337 45.4541 23.341C45.1554 22.7483 45.0061 22.053 45.0061 21.255C45.0061 20.429 45.1531 19.715 45.4471 19.113C45.7411 18.511 46.1541 18.0467 46.6861 17.72C47.2228 17.3933 47.8551 17.23 48.5831 17.23C49.3298 17.23 49.9668 17.4027 50.4941 17.748C51.0214 18.0887 51.4204 18.5787 51.6911 19.218C51.9618 19.8573 52.0854 20.6203 52.0621 21.507H51.0121V21.143C50.9934 20.163 50.7811 19.4233 50.3751 18.924C49.9738 18.4247 49.3858 18.175 48.6111 18.175C47.7991 18.175 47.1761 18.4387 46.7421 18.966C46.3128 19.4933 46.0981 20.2447 46.0981 21.22C46.0981 22.172 46.3128 22.9117 46.7421 23.439C47.1761 23.9617 47.7898 24.223 48.5831 24.223C49.1244 24.223 49.5958 24.0993 49.9971 23.852C50.4031 23.6 50.7228 23.2383 50.9561 22.767L51.9151 23.138C51.6164 23.796 51.1754 24.307 50.5921 24.671C50.0134 25.0303 49.3578 25.21 48.6251 25.21ZM45.7341 21.507V20.646H51.5091V21.507H45.7341ZM59.5705 25V21.143C59.5705 20.723 59.5308 20.338 59.4515 19.988C59.3721 19.6333 59.2438 19.3253 59.0665 19.064C58.8938 18.798 58.6675 18.5927 58.3875 18.448C58.1121 18.3033 57.7761 18.231 57.3795 18.231C57.0155 18.231 56.6935 18.294 56.4135 18.42C56.1381 18.546 55.9048 18.728 55.7135 18.966C55.5268 19.1993 55.3845 19.484 55.2865 19.82C55.1885 20.156 55.1395 20.5387 55.1395 20.968L54.4115 20.807C54.4115 20.0323 54.5468 19.3813 54.8175 18.854C55.0881 18.3267 55.4615 17.9277 55.9375 17.657C56.4135 17.3863 56.9595 17.251 57.5755 17.251C58.0281 17.251 58.4225 17.321 58.7585 17.461C59.0991 17.601 59.3861 17.79 59.6195 18.028C59.8575 18.266 60.0488 18.539 60.1935 18.847C60.3381 19.1503 60.4431 19.4747 60.5085 19.82C60.5738 20.1607 60.6065 20.5013 60.6065 20.842V25H59.5705ZM54.1035 25V17.44H55.0345V19.302H55.1395V25H54.1035ZM66.015 25.21C65.3103 25.21 64.7083 25.035 64.209 24.685C63.7096 24.3303 63.327 23.852 63.061 23.25C62.795 22.648 62.662 21.969 62.662 21.213C62.662 20.4617 62.7926 19.785 63.054 19.183C63.32 18.581 63.7003 18.105 64.195 17.755C64.6896 17.405 65.2823 17.23 65.973 17.23C66.6823 17.23 67.2796 17.4027 67.765 17.748C68.2503 18.0933 68.6166 18.567 68.864 19.169C69.116 19.7663 69.242 20.4477 69.242 21.213C69.242 21.9643 69.1183 22.6433 68.871 23.25C68.6236 23.852 68.2596 24.3303 67.779 24.685C67.2983 25.035 66.7103 25.21 66.015 25.21ZM66.12 24.251C66.6566 24.251 67.1 24.1203 67.45 23.859C67.8 23.5977 68.0613 23.2383 68.234 22.781C68.4066 22.319 68.493 21.7963 68.493 21.213C68.493 20.6203 68.4066 20.0977 68.234 19.645C68.0613 19.1877 67.8 18.8307 67.45 18.574C67.1046 18.3173 66.6683 18.189 66.141 18.189C65.5996 18.189 65.1516 18.322 64.797 18.588C64.4423 18.854 64.1786 19.2157 64.006 19.673C63.838 20.1303 63.754 20.6437 63.754 21.213C63.754 21.787 63.8403 22.305 64.013 22.767C64.1903 23.2243 64.454 23.586 64.804 23.852C65.154 24.118 65.5926 24.251 66.12 24.251ZM68.493 25V19.309H68.381V14.92H69.417V25H68.493ZM72.2208 16.005V14.85H73.2498V16.005H72.2208ZM72.2208 25V17.44H73.2498V25H72.2208ZM76.0414 25L76.0484 14.92H77.0844V21.08L80.4584 17.44H81.8304L78.2884 21.22L82.2924 25H80.7944L77.0844 21.36V25H76.0414Z" fill="white"/>
</g>
<defs>
<filter id="filter0_d_116_8062" x="0.538462" y="0" width="117.923" height="53.9231" filterUnits="userSpaceOnUse" color-interpolation-filters="sRGB">
<feFlood flood-opacity="0" result="BackgroundImageFix"/>
<feColorMatrix in="SourceAlpha" type="matrix" values="0 0 0 0 0 0 0 0 0 0 0 0 0 0 0 0 0 0 127 0" result="hardAlpha"/>
<feOffset dy="6.46154"/>
<feGaussianBlur stdDeviation="3.23077"/>
<feColorMatrix type="matrix" values="0 0 0 0 0 0 0 0 0 0 0 0 0 0 0 0 0 0 0.25 0"/>
<feBlend mode="normal" in2="BackgroundImageFix" result="effect1_dropShadow_116_8062"/>
<feBlend mode="normal" in="SourceGraphic" in2="effect1_dropShadow_116_8062" result="shape"/>
</filter>
</defs>
</svg>
