<svg width="92" height="27" viewBox="0 0 92 27" fill="none" xmlns="http://www.w3.org/2000/svg">
<path d="M5.49473 21V8.02H0.390734V5.6H13.4587V8.02H8.35473V21H5.49473ZM18.9518 12.002H26.6078V14.356H18.9518V12.002ZM19.1718 18.602H27.8618V21H16.3118V5.6H27.5538V7.998H19.1718V18.602ZM31.7567 21V5.6H34.1107L43.7687 17.458H42.6027V5.6H45.4407V21H43.0867L33.4287 9.142H34.5947V21H31.7567ZM50.2739 21V5.6H57.0059C58.6779 5.6 60.1446 5.92267 61.4059 6.568C62.6673 7.21333 63.6499 8.108 64.3539 9.252C65.0579 10.396 65.4099 11.7453 65.4099 13.3C65.4099 14.84 65.0579 16.1893 64.3539 17.348C63.6499 18.492 62.6673 19.3867 61.4059 20.032C60.1446 20.6773 58.6779 21 57.0059 21H50.2739ZM53.1339 18.58H56.8739C58.0326 18.58 59.0299 18.36 59.8659 17.92C60.7166 17.48 61.3693 16.864 61.8239 16.072C62.2933 15.28 62.5279 14.356 62.5279 13.3C62.5279 12.2293 62.2933 11.3053 61.8239 10.528C61.3693 9.736 60.7166 9.12 59.8659 8.68C59.0299 8.24 58.0326 8.02 56.8739 8.02H53.1339V18.58ZM69.1564 21V5.6H72.0164V21H69.1564ZM79.4404 17.37L79.2864 13.982L87.3604 5.6H90.5724L83.8624 12.728L82.2784 14.466L79.4404 17.37ZM76.8884 21V5.6H79.7484V21H76.8884ZM87.6244 21L81.7284 13.982L83.6204 11.892L90.9684 21H87.6244Z" fill="#048741"/>
</svg>
